<svg width="36" height="36" viewBox="0 0 36 36" fill="none" xmlns="http://www.w3.org/2000/svg">
<g id="mdi:face-man-profile">
<path id="Vector" d="M18 3C16.0302 3 14.0796 3.38799 12.2597 4.14181C10.4399 4.89563 8.78628 6.00052 7.3934 7.3934C4.58035 10.2064 3 14.0218 3 18C3 21.9782 4.58035 25.7936 7.3934 28.6066C8.78628 29.9995 10.4399 31.1044 12.2597 31.8582C14.0796 32.612 16.0302 33 18 33C21.9782 33 25.7936 31.4196 28.6066 28.6066C31.4196 25.7936 33 21.9782 33 18C33 16.0302 32.612 14.0796 31.8582 12.2597C31.1044 10.4399 29.9995 8.78628 28.6066 7.3934C27.2137 6.00052 25.5601 4.89563 23.7402 4.14181C21.9204 3.38799 19.9698 3 18 3ZM18 12.585C20.4202 14.1577 23.2437 14.9964 26.13 15C27.3 15 28.425 14.865 29.505 14.61C29.82 15.675 30 16.815 30 18C30 24.615 24.615 30 18 30C13.5 30 9.585 27.51 7.5 23.835L10.125 21V19.5C10.125 19.0027 10.3225 18.5258 10.6742 18.1742C11.0258 17.8225 11.5027 17.625 12 17.625C12.4973 17.625 12.9742 17.8225 13.3258 18.1742C13.6775 18.5258 13.875 19.0027 13.875 19.5V21H18M24 17.625C23.5027 17.625 23.0258 17.8225 22.6742 18.1742C22.3225 18.5258 22.125 19.0027 22.125 19.5C22.125 19.9973 22.3225 20.4742 22.6742 20.8258C23.0258 21.1775 23.5027 21.375 24 21.375C24.4973 21.375 24.9742 21.1775 25.3258 20.8258C25.6775 20.4742 25.875 19.9973 25.875 19.5C25.875 19.0027 25.6775 18.5258 25.3258 18.1742C24.9742 17.8225 24.4973 17.625 24 17.625Z" fill="black"/>
</g>
</svg>
