<svg width="50" height="50" viewBox="0 0 50 50" fill="none" xmlns="http://www.w3.org/2000/svg">
<g id="lets-icons:send-fill">
<g id="Vector" filter="url(#filter0_d_214_189)">
<path fill-rule="evenodd" clip-rule="evenodd" d="M20.7084 26.3458L16.0251 24.7854C11.123 23.152 8.6709 22.3354 8.6709 20.8333C8.6709 19.3333 11.123 18.5145 16.0251 16.8812L33.7605 10.9687C37.2105 9.8187 38.9355 9.2437 39.8459 10.1541C40.7563 11.0645 40.1813 12.7895 39.0334 16.2375L33.1188 33.975C31.4855 38.877 30.6688 41.3291 29.1667 41.3291C27.6667 41.3291 26.848 38.877 25.2146 33.975L23.6521 29.2937L32.723 20.2229C33.1025 19.8299 33.3125 19.3037 33.3077 18.7575C33.303 18.2112 33.0839 17.6887 32.6976 17.3024C32.3113 16.9161 31.7888 16.697 31.2426 16.6923C30.6963 16.6876 30.1701 16.8975 29.7771 17.277L20.7084 26.3458Z" fill="#B6E2EC"/>
</g>
</g>
<defs>
<filter id="filter0_d_214_189" x="4.6709" y="9.70483" width="39.6245" height="39.6243" filterUnits="userSpaceOnUse" color-interpolation-filters="sRGB">
<feFlood flood-opacity="0" result="BackgroundImageFix"/>
<feColorMatrix in="SourceAlpha" type="matrix" values="0 0 0 0 0 0 0 0 0 0 0 0 0 0 0 0 0 0 127 0" result="hardAlpha"/>
<feOffset dy="4"/>
<feGaussianBlur stdDeviation="2"/>
<feComposite in2="hardAlpha" operator="out"/>
<feColorMatrix type="matrix" values="0 0 0 0 0 0 0 0 0 0 0 0 0 0 0 0 0 0 0.25 0"/>
<feBlend mode="normal" in2="BackgroundImageFix" result="effect1_dropShadow_214_189"/>
<feBlend mode="normal" in="SourceGraphic" in2="effect1_dropShadow_214_189" result="shape"/>
</filter>
</defs>
</svg>
