<svg width="40" height="40" viewBox="0 0 40 40" fill="none" xmlns="http://www.w3.org/2000/svg">
<g id="mingcute:target-fill">
<g id="Group">
<path id="Vector" d="M20.0002 3.33337C21.4935 3.33337 22.9402 3.53004 24.3168 3.89837L20.7735 7.44004C20.5047 7.70993 20.2676 8.00965 20.0668 8.33337H20.0002C17.6927 8.33337 15.4371 9.01761 13.5185 10.2996C11.5999 11.5815 10.1046 13.4036 9.22157 15.5354C8.33855 17.6672 8.10751 20.013 8.55767 22.2761C9.00783 24.5392 10.119 26.618 11.7506 28.2496C13.3822 29.8812 15.461 30.9924 17.7241 31.4425C19.9872 31.8927 22.333 31.6617 24.4648 30.7786C26.5966 29.8956 28.4187 28.4003 29.7006 26.4817C30.9826 24.5631 31.6668 22.3075 31.6668 20V19.9334C31.9868 19.7334 32.2868 19.4984 32.5585 19.225L36.1018 15.6834C36.4702 17.06 36.6668 18.5067 36.6668 20C36.6668 29.205 29.2052 36.6667 20.0002 36.6667C10.7952 36.6667 3.3335 29.205 3.3335 20C3.3335 10.795 10.7952 3.33337 20.0002 3.33337ZM19.3102 11.695C19.3102 13.1134 19.2402 14.5517 19.3168 15.9684L18.4168 16.8684C18.1072 17.178 17.8617 17.5455 17.6941 17.95C17.5266 18.3545 17.4403 18.788 17.4403 19.2259C17.4403 19.6637 17.5266 20.0972 17.6941 20.5017C17.8617 20.9062 18.1072 21.2738 18.4168 21.5834C18.7264 21.893 19.094 22.1385 19.4985 22.3061C19.903 22.4736 20.3365 22.5599 20.7743 22.5599C21.2122 22.5599 21.6457 22.4736 22.0502 22.3061C22.4547 22.1385 22.8222 21.893 23.1318 21.5834L24.0318 20.6834C25.4485 20.76 26.8852 20.69 28.3052 20.69C28.1735 22.2739 27.5916 23.7872 26.6282 25.0512C25.6648 26.3153 24.3599 27.2775 22.8676 27.8243C21.3753 28.3711 19.7577 28.4798 18.2056 28.1375C16.6536 27.7952 15.2318 27.0161 14.1079 25.8923C12.9841 24.7684 12.205 23.3466 11.8627 21.7946C11.5204 20.2425 11.6291 18.6249 12.1759 17.1326C12.7227 15.6403 13.6849 14.3354 14.949 13.372C16.213 12.4086 17.7263 11.8267 19.3102 11.695ZM30.8402 3.54504C31.1444 3.67117 31.4044 3.8846 31.5874 4.15839C31.7704 4.43218 31.8682 4.75405 31.8685 5.08337V8.13337H34.9168C35.2464 8.13344 35.5686 8.23123 35.8426 8.41437C36.1166 8.59751 36.3302 8.85778 36.4563 9.16228C36.5824 9.46678 36.6154 9.80184 36.5511 10.1251C36.4869 10.4483 36.3282 10.7453 36.0952 10.9784L30.2002 16.8667C29.8877 17.1793 29.4638 17.3549 29.0218 17.355H25.0002L21.9535 20.4034C21.6408 20.7161 21.2166 20.8918 20.7743 20.8918C20.3321 20.8918 19.9079 20.7161 19.5952 20.4034C19.2824 20.0906 19.1067 19.6665 19.1067 19.2242C19.1067 18.7819 19.2824 18.3578 19.5952 18.045L22.6435 15V10.9767C22.6433 10.7576 22.6864 10.5406 22.7702 10.3381C22.854 10.1356 22.9769 9.95163 23.1318 9.79671L29.0235 3.90504C29.2566 3.67182 29.5536 3.51297 29.877 3.44859C30.2003 3.38421 30.5355 3.4172 30.8402 3.54337" fill="white"/>
</g>
</g>
</svg>
