<svg width="28" height="27" viewBox="0 0 28 27" fill="none" xmlns="http://www.w3.org/2000/svg">
<path id="Vector" d="M22.6667 11.5833C21.3178 11.5866 19.9865 11.277 18.7773 10.6791C17.5682 10.0811 16.5141 9.21101 15.6979 8.13705C14.8817 7.0631 14.3256 5.81455 14.0732 4.48945C13.8208 3.16436 13.8791 1.7988 14.2433 0.5H4C3.07174 0.5 2.1815 0.868749 1.52513 1.52513C0.868748 2.1815 0.5 3.07174 0.5 4V18C0.5 18.9283 0.868748 19.8185 1.52513 20.4749C2.1815 21.1313 3.07174 21.5 4 21.5H19.8083L25.385 25.8283C25.5508 25.9509 25.7461 26.0274 25.951 26.0499C26.156 26.0724 26.3632 26.0403 26.5517 25.9567C26.7502 25.8621 26.918 25.7134 27.0356 25.5276C27.1533 25.3418 27.216 25.1266 27.2167 24.9067V10.265C25.8513 11.1172 24.2761 11.5736 22.6667 11.5833Z" fill="black"/>
</svg>
