<svg width="24" height="22" viewBox="0 0 24 22" fill="none" xmlns="http://www.w3.org/2000/svg">
<g id="ri:more-2-fill">
<path id="Vector" d="M12 2.75C10.9 2.75 10 3.575 10 4.58333C10 5.59167 10.9 6.41667 12 6.41667C13.1 6.41667 14 5.59167 14 4.58333C14 3.575 13.1 2.75 12 2.75ZM12 15.5833C10.9 15.5833 10 16.4083 10 17.4167C10 18.425 10.9 19.25 12 19.25C13.1 19.25 14 18.425 14 17.4167C14 16.4083 13.1 15.5833 12 15.5833ZM12 9.16667C10.9 9.16667 10 9.99167 10 11C10 12.0083 10.9 12.8333 12 12.8333C13.1 12.8333 14 12.0083 14 11C14 9.99167 13.1 9.16667 12 9.16667Z" fill="#545454"/>
</g>
</svg>
