<svg width="27" height="27" viewBox="0 0 27 27" fill="none" xmlns="http://www.w3.org/2000/svg">
<path id="Vector" d="M7 10.0001V0.666748H3.5C2.57174 0.666748 1.6815 1.0355 1.02513 1.69187C0.368749 2.34825 0 3.23849 0 4.16675V25.1667C0.00173635 25.3834 0.0637782 25.5953 0.179172 25.7787C0.294567 25.9621 0.458753 26.1097 0.653333 26.2051C0.840792 26.2903 1.04748 26.3244 1.25239 26.304C1.4573 26.2835 1.65313 26.2091 1.82 26.0884L7.82833 21.6667H23.5083C23.9505 21.6798 24.3907 21.602 24.8015 21.438C25.2124 21.2741 25.5852 21.0275 25.8969 20.7136C26.2086 20.3997 26.4526 20.0252 26.6137 19.6132C26.7747 19.2012 26.8495 18.7605 26.8333 18.3184V17.0001H14C12.1435 17.0001 10.363 16.2626 9.05025 14.9498C7.7375 13.6371 7 11.8566 7 10.0001Z" fill="black"/>
</svg>
